<?xml version="1.0" encoding="utf-8"?>
<!DOCTYPE svg PUBLIC "-//W3C//DTD SVG 1.1//EN" "http://www.w3.org/Graphics/SVG/1.1/DTD/svg11.dtd">
<svg version="1.1" xmlns="http://www.w3.org/2000/svg" xmlns:xlink="http://www.w3.org/1999/xlink"
    x="30px" y="30px" viewBox="0 0 256 256" enable-background="new 0 0 256 256" xml:space="preserve">
<g>
    <path fill="#000000" d="M68.3,69.8c0,33,26.8,59.8,59.8,59.8c33,0,59.8-26.8,59.8-59.8c0-33-26.8-59.8-59.8-59.8C95.1,10,68.3,36.8,68.3,69.8L68.3,69.8z"/>
    <path fill="#000000" d="M129.5,140.2c13.9,0.4,19,1.2,44.1-16.3c4.4-4.8,9.1-5.6,13.1-5.6s24.6,3.2,35.7,25c11.1,21.8,15.5,48.5,13.1,67.9c-2.4,19.5-14.3,33-40.1,34.1c-25.8,1.2-143,0-143,0c-19.5,0-32.2-19.5-32.6-41.3c-0.4-21.8,4-50,16.3-67.5c12.3-17.5,32.2-19.1,38.1-17.1C87,124,99.7,139.4,129.5,140.2z"/>
</g>
</svg>