<?xml version="1.0" standalone="no"?>
<!DOCTYPE svg PUBLIC "-//W3C//DTD SVG 20010904//EN"
 "http://www.w3.org/TR/2001/REC-SVG-20010904/DTD/svg10.dtd">
<svg version="1.0" xmlns="http://www.w3.org/2000/svg"
 width="1000.000000pt" height="675.000000pt" viewBox="0 0 1000.000000 675.000000"
 preserveAspectRatio="xMidYMid meet">

<g transform="translate(0.000000,675.000000) scale(0.100000,-0.100000)"
fill="#000000" stroke="none">
<path d="M3960 4500 c-186 -13 -482 -55 -540 -77 -8 -3 -25 -7 -36 -8 -27 -4
-166 -45 -179 -53 -5 -4 -19 -8 -30 -9 -11 -2 -22 -8 -23 -13 -2 -6 -7 -8 -11
-6 -12 8 -186 -80 -209 -104 -12 -13 -22 -20 -22 -16 0 10 -26 -12 -82 -68
-26 -26 -45 -52 -42 -57 3 -5 1 -9 -4 -9 -10 0 -32 -75 -32 -110 0 -50 85
-190 115 -190 8 0 19 -9 25 -20 6 -11 17 -20 25 -20 7 0 15 -4 17 -8 5 -12 98
-64 98 -55 0 4 4 3 8 -3 11 -18 138 -68 187 -74 6 -1 15 -6 20 -10 14 -12 157
-51 163 -45 3 3 10 1 16 -4 11 -9 167 -39 240 -47 23 -2 68 -9 101 -14 104
-17 606 -24 760 -11 150 13 385 51 475 76 30 9 68 18 84 21 16 3 41 11 55 16
14 6 31 12 36 14 6 1 24 8 40 15 17 6 38 14 48 16 26 5 141 64 149 77 4 6 8 7
8 2 0 -23 180 129 180 153 0 6 4 11 8 11 14 0 32 64 32 114 0 25 -6 61 -14 79
-15 35 -117 147 -133 147 -6 0 -14 7 -17 16 -3 8 -10 12 -16 9 -5 -3 -10 -2
-10 2 0 8 -116 76 -122 73 -2 -1 -14 3 -28 8 -22 9 -56 22 -70 27 -3 1 -13 5
-22 9 -9 4 -22 8 -30 10 -7 1 -18 5 -24 8 -9 6 -151 48 -164 48 -3 0 -21 5
-40 10 -56 15 -292 52 -297 46 -3 -3 -16 -1 -29 4 -50 19 -479 32 -664 20z"/>
<path d="M2753 3426 c1 -160 5 -209 15 -215 8 -5 13 -11 13 -15 -1 -3 -1 -10
-1 -14 0 -11 107 -122 117 -122 5 0 23 -13 42 -29 19 -17 38 -28 43 -25 4 3 8
1 8 -4 0 -10 53 -36 66 -32 4 1 10 -2 13 -8 12 -18 242 -98 304 -106 12 -1 29
-5 37 -9 8 -3 29 -8 45 -11 17 -3 48 -10 71 -15 23 -6 65 -13 95 -17 30 -3 65
-8 79 -9 138 -19 188 -25 205 -25 11 0 117 -2 235 -4 118 -3 265 0 325 5 61 6
128 12 150 14 118 10 338 47 375 62 8 3 28 8 45 10 27 4 65 36 65 55 0 5 6 23
13 41 8 18 14 35 15 40 1 4 11 17 22 29 11 12 20 26 20 30 0 17 117 121 173
154 32 19 60 34 61 34 2 0 21 8 42 17 48 21 45 20 127 35 l68 12 -2 163 c-1
149 -7 189 -23 148 -3 -8 -11 -15 -18 -15 -7 0 -25 -11 -40 -25 -15 -14 -32
-25 -38 -25 -5 0 -10 -5 -10 -11 0 -5 -4 -8 -9 -5 -5 4 -11 2 -13 -2 -4 -11
-197 -95 -268 -117 -30 -10 -59 -20 -65 -24 -5 -3 -19 -7 -30 -8 -11 -2 -27
-6 -35 -10 -8 -3 -23 -8 -32 -9 -10 -2 -73 -15 -140 -28 -143 -29 -319 -54
-433 -61 -171 -10 -588 -5 -676 9 -19 3 -86 12 -150 21 -165 22 -202 28 -249
40 -14 4 -34 8 -45 10 -11 2 -20 4 -20 5 0 1 -7 3 -15 5 -78 19 -79 19 -114
34 -16 6 -38 13 -50 16 -11 2 -23 4 -26 5 -3 2 -8 2 -12 1 -5 0 -8 4 -8 10 0
6 -7 9 -15 5 -8 -3 -15 -1 -15 4 0 6 -3 9 -7 8 -15 -4 -197 92 -249 132 -90
68 -84 80 -81 -154z"/>
<path d="M5695 3160 c-103 -12 -225 -46 -225 -63 0 -4 -4 -6 -9 -3 -4 3 -19
-3 -31 -14 -13 -11 -28 -20 -33 -20 -6 0 -32 -22 -59 -50 -26 -27 -46 -50 -43
-50 3 0 -3 -10 -15 -22 -19 -20 -24 -33 -21 -50 0 -5 -3 -8 -8 -8 -9 0 -21
-35 -26 -77 -2 -12 -6 -26 -9 -32 -9 -13 -9 -159 -1 -231 5 -52 18 -111 32
-147 5 -12 2 -15 -13 -11 -37 10 -49 -19 -49 -122 1 -92 17 -170 36 -170 5 0
8 -4 6 -9 -3 -14 42 -49 72 -56 24 -5 29 -13 38 -58 6 -29 14 -63 17 -77 9
-39 38 -100 48 -100 4 0 8 -6 8 -13 0 -16 42 -57 57 -57 7 0 15 -9 18 -21 9
-27 10 -167 2 -176 -4 -3 -7 -14 -7 -23 0 -51 -116 -220 -151 -220 -5 0 -9 -3
-9 -7 0 -5 -10 -13 -23 -18 -12 -6 -40 -20 -62 -32 -39 -21 -70 -34 -90 -38
-54 -12 -137 -40 -141 -46 -3 -5 -16 -9 -29 -9 -13 0 -27 -5 -30 -10 -4 -6
-10 -8 -15 -5 -5 3 -11 1 -15 -5 -4 -6 -10 -8 -15 -5 -5 3 -11 1 -15 -5 -3 -5
-13 -10 -21 -10 -23 0 -194 -81 -194 -92 0 -5 -4 -7 -9 -3 -5 3 -15 -1 -23 -8
-7 -8 -30 -22 -49 -31 -20 -9 -46 -26 -57 -36 -12 -11 -26 -20 -32 -20 -5 0
-10 -4 -10 -10 0 -5 -5 -10 -10 -10 -6 0 -27 -16 -47 -35 -20 -19 -32 -35 -28
-35 4 0 0 -9 -11 -21 -14 -16 -19 -37 -20 -90 l0 -69 1439 0 1439 0 -5 58 c-2
31 -7 66 -10 77 -3 11 -6 23 -6 27 -2 13 -74 87 -81 83 -4 -2 -18 7 -30 20
-13 14 -29 25 -37 25 -7 0 -13 4 -13 9 0 4 -21 19 -47 32 -26 13 -54 30 -61
37 -8 7 -18 10 -23 7 -5 -4 -9 -2 -9 4 0 10 -38 27 -52 23 -5 -1 -8 3 -8 9 0
5 -4 7 -10 4 -5 -3 -10 -2 -10 2 0 8 -58 34 -77 35 -5 0 -17 5 -28 11 -11 6
-23 12 -27 13 -5 1 -10 3 -13 4 -3 1 -8 3 -12 5 -5 1 -15 5 -23 8 -39 17 -129
45 -133 41 -2 -2 -17 2 -33 11 -16 8 -33 15 -38 15 -13 0 -148 62 -163 75 -68
57 -104 100 -132 160 -18 39 -36 77 -40 85 -4 8 -7 53 -6 99 2 84 2 84 38 114
21 16 37 35 37 43 0 8 5 14 10 14 11 0 49 78 56 115 1 6 3 15 4 20 2 6 4 17 5
25 7 56 19 79 44 85 85 21 117 93 115 262 -1 75 -17 110 -44 93 -23 -14 -29
-2 -15 28 31 64 44 301 22 392 -4 14 -9 37 -13 53 -3 15 -10 27 -16 27 -6 0
-9 3 -5 6 12 12 -26 69 -84 127 -32 31 -63 57 -69 57 -6 0 -18 7 -27 15 -8 8
-19 13 -24 10 -5 -4 -9 -1 -9 4 0 6 -3 10 -7 9 -5 -1 -17 3 -28 9 -11 6 -34
13 -52 16 -17 3 -36 8 -42 11 -25 16 -239 27 -326 16z"/>
<path d="M2757 2924 c-4 -4 -7 -89 -7 -189 0 -227 7 -252 97 -341 35 -35 70
-64 78 -64 7 0 20 -6 27 -14 21 -21 180 -96 189 -90 5 3 9 0 9 -7 0 -7 3 -9 7
-6 3 4 11 3 17 -2 13 -10 113 -44 141 -47 11 -1 20 -3 20 -4 0 -1 7 -3 15 -5
8 -2 24 -6 35 -9 53 -15 216 -47 260 -52 28 -4 66 -8 85 -11 299 -36 551 -39
875 -8 33 3 74 8 90 12 17 4 34 6 39 4 18 -4 281 51 293 63 8 7 9 28 4 66 -4
35 -2 80 7 125 7 39 14 76 15 83 0 6 4 12 9 12 5 0 6 24 2 53 -3 28 -5 59 -5
67 0 8 -2 34 -5 56 l-5 42 -52 -15 c-29 -7 -61 -15 -72 -17 -69 -12 -317 -48
-350 -51 -328 -31 -700 -18 -1005 36 -63 11 -126 22 -140 24 -23 4 -242 62
-247 66 -2 1 -6 2 -10 4 -5 1 -21 7 -38 14 -16 7 -34 14 -40 15 -5 1 -40 16
-77 33 -37 17 -76 34 -88 38 -11 3 -20 11 -20 16 0 6 -4 7 -10 4 -5 -3 -10 -1
-10 4 0 6 -7 11 -15 11 -8 0 -15 5 -15 10 0 6 -7 10 -15 10 -8 0 -15 5 -15 10
0 6 -5 10 -10 10 -6 0 -21 12 -33 26 -12 14 -26 22 -30 18z"/>
<path d="M2750 2034 c0 -142 3 -203 12 -212 7 -7 9 -12 5 -12 -4 0 3 -18 15
-41 32 -63 115 -141 171 -161 15 -5 27 -15 27 -21 0 -6 3 -8 6 -4 4 3 13 -1
21 -9 8 -8 19 -12 24 -9 5 4 9 1 9 -4 0 -6 9 -11 20 -11 11 0 20 -5 20 -10 0
-6 3 -9 8 -8 4 0 23 -6 43 -15 19 -9 48 -19 65 -22 16 -4 43 -13 59 -20 45
-20 244 -67 254 -60 5 3 13 0 16 -6 4 -5 14 -8 22 -5 9 4 21 2 27 -3 27 -21
270 -43 543 -48 332 -6 498 6 733 52 14 3 42 7 63 10 20 2 45 9 56 14 10 6 21
8 24 4 4 -3 14 0 23 8 10 8 18 12 18 10 1 -6 74 9 105 21 14 6 35 13 45 15 11
2 33 10 49 18 17 8 36 15 44 15 7 0 13 5 13 11 0 5 4 8 9 4 16 -9 41 25 41 54
0 16 -10 39 -22 52 -13 14 -24 29 -26 34 -1 6 -12 20 -22 33 -11 12 -17 22
-13 22 3 0 -1 8 -9 18 -8 9 -23 46 -33 82 -11 36 -25 71 -32 78 -7 7 -13 11
-13 7 0 -4 -12 7 -26 24 -14 17 -31 28 -37 24 -6 -4 -20 -8 -32 -9 -11 -2 -58
-12 -105 -24 -47 -12 -92 -22 -100 -22 -8 0 -35 -4 -60 -9 -284 -50 -685 -62
-992 -29 -51 5 -113 12 -138 14 -25 2 -56 7 -70 10 -14 3 -41 8 -60 11 -51 6
-247 52 -299 70 -24 8 -47 12 -52 9 -5 -3 -9 0 -9 5 0 6 -3 10 -7 9 -5 -1 -21
4 -38 11 -16 7 -38 13 -47 14 -10 1 -18 4 -18 8 0 7 -50 23 -62 21 -5 -1 -8 2
-8 7 0 9 -60 37 -72 33 -5 -1 -8 2 -8 6 0 8 -45 34 -60 36 -3 1 -16 11 -30 24
-13 12 -27 22 -31 22 -5 0 -20 12 -34 27 l-25 28 0 -201z"/>
<path d="M2750 1330 c-1 -181 8 -246 35 -274 8 -8 15 -19 15 -24 0 -14 122
-122 137 -122 7 0 13 -5 13 -11 0 -5 4 -8 9 -5 5 4 11 3 13 -1 5 -12 88 -55
88 -46 0 4 4 2 9 -5 4 -7 14 -14 22 -16 8 -1 23 -7 34 -13 11 -6 23 -11 28
-12 4 0 22 -7 41 -15 18 -7 48 -17 67 -22 42 -10 41 -9 59 -17 24 -10 132 -36
170 -41 19 -2 55 -9 80 -14 25 -5 52 -10 60 -11 8 -1 62 -8 120 -16 115 -16
456 -29 464 -17 2 4 6 37 7 72 3 72 31 150 69 194 54 62 74 81 82 79 4 -2 8 1
8 7 0 5 16 17 35 26 19 9 35 20 35 25 0 5 7 9 15 9 8 0 15 5 15 10 0 6 7 10
15 10 8 0 15 5 15 10 0 6 3 9 8 8 12 -3 62 24 62 34 0 4 3 8 8 7 16 -2 52 14
52 23 0 6 -10 8 -22 4 -13 -4 -81 -9 -153 -11 -71 -3 -157 -7 -190 -10 -82 -7
-424 11 -565 30 -125 16 -290 47 -385 72 -33 8 -64 16 -70 18 -5 1 -23 7 -39
14 -16 6 -39 13 -50 14 -12 1 -23 5 -26 9 -3 4 -15 9 -25 11 -11 2 -30 8 -41
15 -12 6 -24 8 -28 5 -3 -3 -6 -1 -6 5 0 7 -7 12 -15 12 -9 0 -57 25 -107 55
-50 30 -92 55 -94 55 -2 0 -15 11 -30 25 -15 14 -30 25 -35 25 -4 0 -8 -81 -9
-180z"/>
</g>
</svg>
